<?xml version="1.0" encoding="utf-8"?>
<!-- Generator: Adobe Illustrator 18.0.0, SVG Export Plug-In . SVG Version: 6.00 Build 0)  -->
<!DOCTYPE svg PUBLIC "-//W3C//DTD SVG 1.1//EN" "http://www.w3.org/Graphics/SVG/1.1/DTD/svg11.dtd">
<svg version="1.1" id="Layer_1" xmlns="http://www.w3.org/2000/svg" xmlns:xlink="http://www.w3.org/1999/xlink" x="0px" y="0px"
	 viewBox="0 0 267.5 271.1" enable-background="new 0 0 267.5 271.1" xml:space="preserve">
<g>
	<circle fill="#414042" cx="135.1" cy="134" r="124.8"/>
	<circle fill="#8FC44D" cx="135.1" cy="134" r="115.8"/>
	<path fill="#363335" d="M97.4,139c0,0,3-5.1,0.4-2.5c-2.6,2.5-3.5,2.5-3.5,2.5s1.4,18.7,7.1,19.2c5.7,0.5,58.7-5.1,58.7-5.1
		s4,5,7.6,4.6c7.6-1,7.1-20.2,7.1-20.2s-6.6-2.1-6.6-14.3C168.1,113.6,97.4,139,97.4,139z"/>
	<g>
		<defs>
			<circle id="SVGID_1_" cx="135.1" cy="135" r="115.8"/>
		</defs>
		<clipPath id="SVGID_2_">
			<use xlink:href="#SVGID_1_"  overflow="visible"/>
		</clipPath>
		<path clip-path="url(#SVGID_2_)" fill="#262328" d="M134.8,168.5c-45.9,0-84.1,24.2-92.6,56.2l34.5,37.2h97.9l52.8-37.2
			C218.9,192.6,180.7,168.5,134.8,168.5z"/>
	</g>
	<path fill="#F3B6A5" d="M175.3,130.8c2.6,8-4,11.3-7.2,11.3c-3.3,0-4.9-9.2-4.9-14.7c0-5.5,3.6-9.9,6.9-9.9
		C173.3,117.5,182.4,118.3,175.3,130.8z"/>
	<path fill="#F3B6A5" d="M92.5,130.8c-2.6,8,3,11.3,6.2,11.3c3.3,0,5.9-9.2,5.9-14.7c0-5.5-3.6-9.9-6.9-9.9
		C94.5,117.5,85.4,118.3,92.5,130.8z"/>
	<g>
		<path fill="#363335" d="M178.6,91.8c0.1,0.7,0.1,1.3,0.2,2C178.8,93.7,178.7,93.1,178.6,91.8z"/>
		<path fill="#363335" d="M177.5,88.5c1.9-0.3,4.2-2.1,7.1-6.4c0,0-2.7,2.3-7-5.5c-5.4-10-12.5-23-32.2-24.8
			c-19.6-1.9-27.8,9.4-27.8,9.4c-10.5-7-24.6,2.8-22.5,14.1c-7.7,0.4-10.3,17.1-4,22.3c-5,10.6,2.8,23.5,2.8,23.5
			c0.4,1.1,4.7,4.1,5.1,5.2c7.2,19.8,15.7,29.4,35.6,29.4c18.4,0,28.3-12.4,36.3-28.9c0.5-1.1,4.8-4.5,5.4-5.7c0,0,6-15.3,3.4-24.3
			C178.5,92.9,177.5,88.5,177.5,88.5z"/>
	</g>
	<g>
		<path fill="#F3B6A5" d="M162.2,172.9c0,15.5-12.4,24.7-27.7,24.7c-15.3,0-27.7-9.2-27.7-24.7c0-15.5,12.4-31.3,27.7-31.3
			C149.8,141.6,162.2,157.4,162.2,172.9z"/>
		<ellipse fill="#F3B6A5" cx="134.5" cy="151.6" rx="21.9" ry="22.2"/>
		<rect x="112.6" y="151.6" fill="#F3B6A5" width="43.9" height="23.8"/>
	</g>
	<path fill="#F3B6A5" d="M162.8,78.4c-5.2-4-22-5.3-30.2-0.4c-39.5-13.9-31.4,30.9-35.5,34.7v31.7h0.1c1.1,19,17.9,37.5,37.4,37.5
		s36.3-18.5,37.4-37.5h0.1l0.5-31.3C168.7,110.3,173.7,86.7,162.8,78.4z"/>
	<ellipse opacity="0.85" fill="#EFA09A" cx="111.8" cy="133.3" rx="10" ry="10.2"/>
	<path fill="none" stroke="#262328" stroke-width="5.3231" stroke-miterlimit="10" d="M124.7,125.6c0-3.9,4.3-7.1,9.7-7.1
		c5.4,0,9.7,3.2,9.7,7.1"/>
	<path fill="#262328" d="M130.7,123.2c0,4.4-3.6,8-8,8h-13.9c-4.4,0-8-3.6-8-8v-1.5c0-4.4,3.6-8,8-8h13.9c4.4,0,8,3.6,8,8V123.2z"/>
	<path fill="#363335" d="M101.4,84.3c0,0,3.7,1.5,7.9-1.7c5.4-4.2,4.7-9.9,13.7-9.6c5.6,0.2,9.7,5.2,9.7,5.2s-8.7-3.6-12.6,1.2
		C114.7,85.8,108.4,91.4,101.4,84.3z"/>
	<path fill="#63686B" d="M125.7,117.2c0,0.5-0.4,0.9-0.9,0.9h-6.6c-0.5,0-0.9-0.4-0.9-0.9l0,0c0-0.5,0.4-0.9,0.9-0.9h6.6
		C125.3,116.3,125.7,116.7,125.7,117.2L125.7,117.2z"/>
	<line fill="none" stroke="#262328" stroke-width="5.3231" stroke-miterlimit="10" x1="165.1" y1="118.8" x2="172.7" y2="118.8"/>
	<line fill="none" stroke="#262328" stroke-width="5.3231" stroke-miterlimit="10" x1="96" y1="118.8" x2="103.6" y2="118.8"/>
	<path fill="#6C6A66" d="M172.3,120c0,0,0.4,47.5-15.2,49.6c-9.7,1.3-14.1-3.2-14.1-3.2h-16.1c0,0-6.6,4.8-14.8,3.2
		C95.9,166.4,97.3,120,97.3,120s-1.3,0.3-1.4,0.4l1.2,23.2h0c0.7,19.9,15.3,43.6,37.4,43.6c22.8,0,36.7-23.7,37.4-43.6h0l1.5-22.3
		C173.4,121.2,172.3,120,172.3,120z"/>
	<path fill="#FFFFFF" d="M119.4,147.6c0,0,3,6.3,15.6,6.3c12.6,0,15-6.3,15-6.3H119.4z"/>
	<g>
		<path fill="#6C6A66" d="M130,156.3h-0.3l4.7,4.8l4.5-4.6c-1.2,0.2-2.5,0.3-3.9,0.3C133.2,156.8,131.5,156.6,130,156.3z"/>
	</g>
	<path fill="#6C6A66" d="M138.3,140c-0.5-0.8-2.2-0.4-3.6-0.3c-1.4-0.1-3.2-0.5-3.6,0.3c-2.5,4.6-14.7,3.5-14.5,6.3h18.1h4.7h13.4
		C152.2,143.2,141.5,144.6,138.3,140z"/>
	<path fill="#D48E87" d="M122.5,135.9h23.5c0,0-3.5,3.9-11.4,3.9C126.8,139.8,122.5,135.9,122.5,135.9z"/>
	<g>
		<path fill="#262328" d="M128,138.1c1.8,0,3.3-1,3.4-2.2h-6.9C124.7,137.1,126.2,138.1,128,138.1z"/>
	</g>
	<g>
		<path fill="#262328" d="M141.5,138.1c1.8,0,3.3-1,3.4-2.2h-6.9C138.2,137.1,139.7,138.1,141.5,138.1z"/>
	</g>
	<ellipse opacity="0.85" fill="#EFA09A" cx="157.2" cy="133.3" rx="10" ry="10.2"/>
	<path fill="#262328" d="M168.1,123.2c0,4.4-3.6,8-8,8h-13.9c-4.4,0-8-3.6-8-8v-1.5c0-4.4,3.6-8,8-8h13.9c4.4,0,8,3.6,8,8V123.2z"/>
	<path fill="#63686B" d="M163.8,117.2c0,0.5-0.4,0.9-0.9,0.9h-6.6c-0.5,0-0.9-0.4-0.9-0.9l0,0c0-0.5,0.4-0.9,0.9-0.9h6.6
		C163.4,116.3,163.8,116.7,163.8,117.2L163.8,117.2z"/>
	<path fill="#555356" d="M146.9,172.9c-3.9,1.8-8.1,2.8-12.6,2.8c-4.5,0-8.7-1-12.6-2.8c0,0,3.9,5.4,12.6,5.4
		S146.9,172.9,146.9,172.9z"/>
	<path fill="#363335" d="M115.9,106.7c-7.4,0-10.4,2.3-12.1,5.4H128C126.3,109,121.5,106.7,115.9,106.7z"/>
	<path fill="#363335" d="M153.3,106.7c-5.6,0-10.4,2.3-12.1,5.4h24.2C163.6,109,160.5,106.7,153.3,106.7z"/>
</g>
</svg>
